<svg width="80" height="80" viewBox="0 0 80 80" fill="none" xmlns="http://www.w3.org/2000/svg">
<path fill-rule="evenodd" clip-rule="evenodd" d="M75.4418 75.7155H74.6883C74.6536 75.7155 74.6255 75.7437 74.6255 75.7783V76.5316C74.6255 76.5664 74.6536 76.5946 74.6883 76.5946H75.4418C75.4763 76.5946 75.5047 76.5664 75.5047 76.5316V75.7783C75.5047 75.7437 75.4763 75.7155 75.4418 75.7155Z" fill="#39962D"/>
<path fill-rule="evenodd" clip-rule="evenodd" d="M73.7438 75.7556H73.0246C72.9919 75.7556 72.9648 75.7826 72.9648 75.8157V76.5346C72.9648 76.5676 72.9919 76.5947 73.0246 76.5947H73.7438C73.7765 76.5947 73.8039 76.5676 73.8039 76.5346V75.8157C73.8039 75.7826 73.7765 75.7556 73.7438 75.7556Z" fill="#39962D"/>
<path fill-rule="evenodd" clip-rule="evenodd" d="M72.045 75.7958H71.3607C71.329 75.7958 71.3032 75.8216 71.3032 75.8531V76.5375C71.3032 76.5689 71.329 76.5947 71.3607 76.5947H72.045C72.0766 76.5947 72.1023 76.5689 72.1023 76.5375V75.8531C72.1023 75.8216 72.0766 75.7958 72.045 75.7958Z" fill="#39962D"/>
<path fill-rule="evenodd" clip-rule="evenodd" d="M70.3471 75.8361H69.6971C69.6671 75.8361 69.6426 75.8605 69.6426 75.8904V76.5403C69.6426 76.5702 69.6671 76.5946 69.6971 76.5946H70.3471C70.3768 76.5946 70.4012 76.5702 70.4012 76.5403V75.8904C70.4012 75.8605 70.3768 75.8361 70.3471 75.8361Z" fill="#39962D"/>
<path fill-rule="evenodd" clip-rule="evenodd" d="M68.6484 75.8762H68.0329C68.0048 75.8762 67.9814 75.8994 67.9814 75.9276V76.5432C67.9814 76.5715 68.0048 76.5946 68.0329 76.5946H68.6484C68.6769 76.5946 68.6999 76.5715 68.6999 76.5432V75.9276C68.6999 75.8994 68.6769 75.8762 68.6484 75.8762Z" fill="#39962D"/>
<path fill-rule="evenodd" clip-rule="evenodd" d="M66.9506 75.9164H66.3694C66.3424 75.9164 66.3208 75.9383 66.3208 75.965V76.5462C66.3208 76.5729 66.3424 76.5947 66.3694 76.5947H66.9506C66.977 76.5947 66.9988 76.5729 66.9988 76.5462V75.965C66.9988 75.9383 66.977 75.9164 66.9506 75.9164Z" fill="#39962D"/>
<path fill-rule="evenodd" clip-rule="evenodd" d="M65.2524 75.9567H64.7057C64.6807 75.9567 64.6602 75.9772 64.6602 76.0024V76.5489C64.6602 76.5741 64.6807 76.5946 64.7057 76.5946H65.2524C65.2777 76.5946 65.2978 76.5741 65.2978 76.5489V76.0024C65.2978 75.9772 65.2777 75.9567 65.2524 75.9567Z" fill="#39962D"/>
<path fill-rule="evenodd" clip-rule="evenodd" d="M63.5536 75.9968H63.0416C63.0179 75.9968 62.999 76.0161 62.999 76.0396V76.5519C62.999 76.5753 63.0179 76.5946 63.0416 76.5946H63.5536C63.5774 76.5946 63.5967 76.5753 63.5967 76.5519V76.0396C63.5967 76.0161 63.5774 75.9968 63.5536 75.9968Z" fill="#39962D"/>
<path fill-rule="evenodd" clip-rule="evenodd" d="M61.8559 76.0372H61.3779C61.3561 76.0372 61.3379 76.0551 61.3379 76.077V76.5548C61.3379 76.5768 61.3561 76.5947 61.3779 76.5947H61.8559C61.8776 76.5947 61.8959 76.5768 61.8959 76.5548V76.077C61.8959 76.0551 61.8776 76.0372 61.8559 76.0372Z" fill="#39962D"/>
<path fill-rule="evenodd" clip-rule="evenodd" d="M66.4003 32.4305C67.0088 34.7167 67.3341 37.1181 67.3341 39.596C67.3341 54.9499 54.8873 67.3968 39.5333 67.3968C24.1793 67.3968 11.7324 54.9499 11.7324 39.596C11.7324 24.4171 23.8974 12.081 39.0094 11.8016C39.842 11.719 40.6864 11.6762 41.5412 11.6762C42.1485 11.6762 42.7501 11.6988 43.3469 11.7411C24.894 13.1781 18.2727 34.4637 31.7858 46.674C45.0907 58.696 66.0236 51.0001 66.0236 32.651C66.0236 31.7873 65.9702 30.936 65.8681 30.0999C66.0812 30.8628 66.2591 31.6401 66.4003 32.4305Z" fill="#39962D"/>
</svg>
