<svg width="40" height="40" viewBox="0 0 40 40" fill="none" xmlns="http://www.w3.org/2000/svg">
<g clip-path="url(#clip0_34_586)">
<path d="M1.66699 1.66675H8.33366L12.8003 23.9834C12.9527 24.7507 13.3702 25.44 13.9796 25.9306C14.589 26.4211 15.3515 26.6817 16.1337 26.6667H32.3337C33.1158 26.6817 33.8784 26.4211 34.4877 25.9306C35.0971 25.44 35.5146 24.7507 35.667 23.9834L38.3337 10.0001H10.0003M16.667 35.0001C16.667 35.9206 15.9208 36.6667 15.0003 36.6667C14.0799 36.6667 13.3337 35.9206 13.3337 35.0001C13.3337 34.0796 14.0799 33.3334 15.0003 33.3334C15.9208 33.3334 16.667 34.0796 16.667 35.0001ZM35.0003 35.0001C35.0003 35.9206 34.2541 36.6667 33.3337 36.6667C32.4132 36.6667 31.667 35.9206 31.667 35.0001C31.667 34.0796 32.4132 33.3334 33.3337 33.3334C34.2541 33.3334 35.0003 34.0796 35.0003 35.0001Z" stroke="#1E1E1E" stroke-width="3.5" stroke-linecap="round" stroke-linejoin="round"/>
</g>
<defs>
<clipPath id="clip0_34_586">
<rect width="40" height="40" fill="white"/>
</clipPath>
</defs>
</svg>
