<svg width="50" height="50" viewBox="0 0 50 50" fill="none" xmlns="http://www.w3.org/2000/svg">
<circle cx="25" cy="25" r="25" fill="#D9D9D9"/>
<path d="M38.3337 39V35.6667C38.3337 33.8986 37.6313 32.2029 36.381 30.9526C35.1308 29.7024 33.4351 29 31.667 29H18.3337C16.5655 29 14.8699 29.7024 13.6196 30.9526C12.3694 32.2029 11.667 33.8986 11.667 35.6667V39M31.667 15.6667C31.667 19.3486 28.6822 22.3333 25.0003 22.3333C21.3184 22.3333 18.3337 19.3486 18.3337 15.6667C18.3337 11.9848 21.3184 9 25.0003 9C28.6822 9 31.667 11.9848 31.667 15.6667Z" stroke="#1E1E1E" stroke-width="3.5" stroke-linecap="round" stroke-linejoin="round"/>
</svg>
