<svg width="60" height="60" viewBox="0 0 60 60" fill="none" xmlns="http://www.w3.org/2000/svg">
<g style="mix-blend-mode:plus-darker" filter="url(#filter0_d_117_175)">
<path fill-rule="evenodd" clip-rule="evenodd" d="M4 26C4 11.6406 15.6406 0 30 0C44.3593 0 56 11.6406 56 26C56 40.3593 44.3593 52 30 52C15.6406 52 4 40.3593 4 26ZM29.9997 10.4C24.256 10.4 19.5998 15.0562 19.5998 20.8C19.5998 26.5437 24.256 31.2 29.9997 31.2C35.7434 31.2 40.3997 26.5437 40.3997 20.8C40.3997 15.0562 35.7434 10.4 29.9997 10.4ZM43.2899 36.3932C45.2602 37.662 45.164 40.4277 43.3697 41.9349C39.7544 44.9712 35.0911 46.8 30.0003 46.8C24.9433 46.8 20.3076 44.9953 16.7025 41.9947C14.8922 40.488 14.7963 37.7083 16.7751 36.4312C17.3911 36.0337 18.062 35.6853 18.7901 35.3852C21.7194 34.1775 25.4609 33.8 30 33.8C34.562 33.8 38.3247 34.1533 41.2616 35.348C41.9954 35.6465 42.6708 35.9947 43.2899 36.3932Z" fill="#323232"/>
<path d="M30 0.5C44.0831 0.5 55.5 11.9167 55.5 26C55.5 40.0831 44.0831 51.5 30 51.5C15.9167 51.5 4.5 40.0831 4.5 26C4.5 11.9167 15.9167 0.5 30 0.5ZM30 33.2998C25.447 33.2998 21.6235 33.6762 18.5996 34.9229C17.8454 35.2336 17.1472 35.5956 16.5039 36.0107C14.1831 37.5086 14.3692 40.7029 16.3828 42.3789C20.0744 45.4515 24.822 47.2997 30 47.2998C35.2128 47.2998 39.9894 45.4265 43.6914 42.3174C45.6859 40.6418 45.8739 37.4624 43.5605 35.9727C42.9136 35.5562 42.2104 35.194 41.4502 34.8848C38.4184 33.6515 34.573 33.2998 30 33.2998ZM30 9.90039C23.9802 9.90039 19.0997 14.78 19.0996 20.7998C19.0996 26.8196 23.9801 31.7002 30 31.7002C36.0197 31.7001 40.8994 26.8195 40.8994 20.7998C40.8993 14.7801 36.0196 9.90053 30 9.90039Z" stroke="black" stroke-opacity="0.2"/>
</g>
<defs>
<filter id="filter0_d_117_175" x="0" y="0" width="60" height="60" filterUnits="userSpaceOnUse" color-interpolation-filters="sRGB">
<feFlood flood-opacity="0" result="BackgroundImageFix"/>
<feColorMatrix in="SourceAlpha" type="matrix" values="0 0 0 0 0 0 0 0 0 0 0 0 0 0 0 0 0 0 127 0" result="hardAlpha"/>
<feOffset dy="4"/>
<feGaussianBlur stdDeviation="2"/>
<feComposite in2="hardAlpha" operator="out"/>
<feColorMatrix type="matrix" values="0 0 0 0 0 0 0 0 0 0 0 0 0 0 0 0 0 0 0.25 0"/>
<feBlend mode="normal" in2="BackgroundImageFix" result="effect1_dropShadow_117_175"/>
<feBlend mode="normal" in="SourceGraphic" in2="effect1_dropShadow_117_175" result="shape"/>
</filter>
</defs>
</svg>
